<svg width="89" height="101" viewBox="0 0 89 101" fill="none" xmlns="http://www.w3.org/2000/svg">
<g clip-path="url(#clip0_995_40222)">
<path d="M67.4689 9.37861L1.17969 29.0371L21.1329 96.9104L87.4221 77.2519L67.4689 9.37861Z" fill="#E5E7EB"/>
<path d="M13.0723 67.4105C17.044 57.5929 21.9036 54.2113 25.5794 52.9264C33.5085 50.1536 39.1224 56.0164 57.1964 56.4995C65.7887 56.7296 68.6633 55.5162 70.6541 53.8268C76.3875 48.9587 75.4554 39.5713 75.1452 37.1201L87.4203 77.2668C71.9268 84.2277 55.7403 89.5142 39.1338 93.0373C33.3292 94.2664 27.7125 95.2269 22.3149 95.9673C19.2326 86.4484 16.1517 76.9295 13.0723 67.4105Z" fill="#4A5565"/>
<path d="M0.174826 28.2821L20.5243 97.6372C20.8148 98.6249 21.4839 99.4563 22.3844 99.9489C23.2849 100.441 24.3433 100.555 25.327 100.264L86.2018 82.2411C87.1854 81.9496 88.0135 81.2777 88.5039 80.3732C88.9944 79.4686 89.1071 78.4054 88.8173 77.4174L68.4678 8.06367C68.3242 7.57453 68.086 7.11861 67.7668 6.72194C67.4477 6.32527 67.0539 5.99562 66.6079 5.75181C66.1619 5.508 65.6725 5.35481 65.1676 5.30099C64.6626 5.24716 64.1521 5.29376 63.6651 5.43811L2.79037 23.4611C1.8072 23.7523 0.979377 24.4238 0.488912 25.3278C-0.00155282 26.2318 -0.114519 27.2944 0.174826 28.2821ZM81.9853 77.1629L26.1325 93.6981C25.6455 93.8424 25.1349 93.8889 24.63 93.835C24.1251 93.7811 23.6357 93.6277 23.1899 93.3838C22.744 93.1398 22.3503 92.81 22.0314 92.4132C21.7125 92.0164 21.4745 91.5603 21.3311 91.0711L4.39697 33.3731C4.25233 32.8831 4.20545 32.3693 4.25899 31.8611C4.31254 31.3529 4.46545 30.8603 4.70899 30.4116C4.95253 29.9629 5.28188 29.5669 5.67816 29.2464C6.07443 28.9258 6.52983 28.687 7.01821 28.5436L62.8653 12.0127C63.8489 11.7217 64.9073 11.8349 65.8077 12.3276C66.7081 12.8202 67.3768 13.6519 67.6667 14.6397L84.6008 72.3392C84.8889 73.3264 84.7753 74.3882 84.285 75.2914C83.7947 76.1947 82.9676 76.8657 81.9853 77.1572V77.1629Z" fill="#7E899C"/>
<path d="M18.5837 32.6465H18.5823C14.6401 32.6465 11.4443 35.8562 11.4443 39.8157V39.8171C11.4443 43.7765 14.6401 46.9863 18.5823 46.9863H18.5837C22.5259 46.9863 25.7217 43.7765 25.7217 39.8171V39.8157C25.7217 35.8562 22.5259 32.6465 18.5837 32.6465Z" fill="white"/>
<path d="M55.5053 39.297C66.3841 39.297 75.203 30.5949 75.203 19.8604C75.203 9.12588 66.3841 0.423828 55.5053 0.423828C44.6266 0.423828 35.8076 9.12588 35.8076 19.8604C35.8076 30.5949 44.6266 39.297 55.5053 39.297Z" fill="#B6BDCB"/>
<path d="M55.4151 25.9899C54.9199 25.7941 55.0224 24.3034 53.4229 12.8893C53.2336 11.5357 52.9291 9.41186 53.6022 7.94114C53.6733 7.78964 54.4261 6.20887 55.6428 6.6891C56.7813 7.14218 57.4544 9.07455 57.5568 9.37041C58.2584 11.4 57.9837 13.3966 57.7617 14.9017C56.6375 22.471 56.0712 26.2572 55.4151 25.9899Z" fill="#ECECEC"/>
<path d="M55.6157 31.2214C56.1672 31.1092 56.4607 30.2562 56.2711 29.3162C56.0816 28.3762 55.4808 27.7052 54.9293 27.8174C54.3777 27.9296 54.0843 28.7825 54.2739 29.7225C54.4635 30.6625 55.0642 31.3336 55.6157 31.2214Z" fill="#ECECEC"/>
</g>
<defs>
<clipPath id="clip0_995_40222">
<rect width="88.9655" height="100" fill="white" transform="translate(0.0175781 0.423828)"/>
</clipPath>
</defs>
</svg>
